<mxfile host="app.diagrams.net" modified="2023-07-07T14:42:33.529Z" agent="Mozilla/5.0 (Macintosh; Intel Mac OS X 10_15_7) AppleWebKit/537.36 (KHTML, like Gecko) Chrome/114.0.0.0 Safari/537.36" etag="ACWMNe70wGYmMgXez-VC" version="21.3.5" type="github">
  <diagram name="페이지-1" id="aawZTWIsSB6Uh0-5z7lG">
    <mxGraphModel dx="1319" dy="803" grid="1" gridSize="10" guides="1" tooltips="1" connect="1" arrows="1" fold="1" page="1" pageScale="1" pageWidth="1654" pageHeight="2336" math="0" shadow="0">
      <root>
        <mxCell id="0" />
        <mxCell id="1" parent="0" />
        <mxCell id="L7Zh1CeTjRLwIHye0Val-20" value="" style="group" vertex="1" connectable="0" parent="1">
          <mxGeometry x="100" y="150" width="1180" height="610" as="geometry" />
        </mxCell>
        <mxCell id="HPx4gAomgWR3Ly9X30eJ-1" value="" style="rounded=0;whiteSpace=wrap;html=1;" parent="L7Zh1CeTjRLwIHye0Val-20" vertex="1">
          <mxGeometry width="1179.9999999999998" height="610" as="geometry" />
        </mxCell>
        <mxCell id="L7Zh1CeTjRLwIHye0Val-1" value="" style="rounded=0;whiteSpace=wrap;html=1;" vertex="1" parent="L7Zh1CeTjRLwIHye0Val-20">
          <mxGeometry x="23.599999999999998" y="19.0625" width="684.3999999999999" height="514.6875000000001" as="geometry" />
        </mxCell>
        <mxCell id="L7Zh1CeTjRLwIHye0Val-2" value="" style="rounded=0;whiteSpace=wrap;html=1;" vertex="1" parent="L7Zh1CeTjRLwIHye0Val-20">
          <mxGeometry x="47.199999999999996" y="38.125" width="637.1999999999999" height="438.43750000000006" as="geometry" />
        </mxCell>
        <mxCell id="L7Zh1CeTjRLwIHye0Val-3" value="&lt;font style=&quot;font-size: 24px;&quot;&gt;App&lt;/font&gt;" style="text;html=1;strokeColor=none;fillColor=none;align=center;verticalAlign=middle;whiteSpace=wrap;rounded=0;" vertex="1" parent="L7Zh1CeTjRLwIHye0Val-20">
          <mxGeometry x="566.3999999999999" y="552.8125000000001" width="141.59999999999997" height="57.18750000000001" as="geometry" />
        </mxCell>
        <mxCell id="L7Zh1CeTjRLwIHye0Val-5" value="&lt;font style=&quot;font-size: 24px;&quot;&gt;React Native&lt;/font&gt;" style="text;html=1;strokeColor=none;fillColor=none;align=center;verticalAlign=middle;whiteSpace=wrap;rounded=0;" vertex="1" parent="L7Zh1CeTjRLwIHye0Val-20">
          <mxGeometry x="283.19999999999993" y="476.56250000000006" width="188.79999999999998" height="57.18750000000001" as="geometry" />
        </mxCell>
        <mxCell id="L7Zh1CeTjRLwIHye0Val-7" value="&lt;font style=&quot;font-size: 24px;&quot;&gt;JavaScript Interpreter&lt;/font&gt;" style="text;html=1;strokeColor=none;fillColor=none;align=center;verticalAlign=middle;whiteSpace=wrap;rounded=0;" vertex="1" parent="L7Zh1CeTjRLwIHye0Val-20">
          <mxGeometry x="230.09999999999997" y="419.37500000000006" width="294.99999999999994" height="57.18750000000001" as="geometry" />
        </mxCell>
        <mxCell id="L7Zh1CeTjRLwIHye0Val-8" value="" style="rounded=0;whiteSpace=wrap;html=1;" vertex="1" parent="L7Zh1CeTjRLwIHye0Val-20">
          <mxGeometry x="70.79999999999998" y="57.18750000000001" width="589.9999999999999" height="362.1875" as="geometry" />
        </mxCell>
        <mxCell id="L7Zh1CeTjRLwIHye0Val-9" value="&lt;font style=&quot;font-size: 24px;&quot;&gt;React Native JS Modules&lt;/font&gt;" style="text;html=1;strokeColor=none;fillColor=none;align=center;verticalAlign=middle;whiteSpace=wrap;rounded=0;" vertex="1" parent="L7Zh1CeTjRLwIHye0Val-20">
          <mxGeometry x="203.54999999999998" y="362.1875" width="348.09999999999997" height="57.18750000000001" as="geometry" />
        </mxCell>
        <mxCell id="L7Zh1CeTjRLwIHye0Val-10" value="&lt;font style=&quot;font-size: 24px;&quot;&gt;JavaScript&lt;/font&gt;" style="rounded=0;whiteSpace=wrap;html=1;" vertex="1" parent="L7Zh1CeTjRLwIHye0Val-20">
          <mxGeometry x="94.39999999999999" y="181.09375" width="259.59999999999997" height="114.37500000000001" as="geometry" />
        </mxCell>
        <mxCell id="L7Zh1CeTjRLwIHye0Val-11" value="&lt;font style=&quot;font-size: 24px;&quot;&gt;Markup/Styling&lt;/font&gt;" style="rounded=0;whiteSpace=wrap;html=1;" vertex="1" parent="L7Zh1CeTjRLwIHye0Val-20">
          <mxGeometry x="377.59999999999997" y="181.09375" width="259.59999999999997" height="114.37500000000001" as="geometry" />
        </mxCell>
        <mxCell id="L7Zh1CeTjRLwIHye0Val-12" value="" style="endArrow=classic;startArrow=classic;html=1;rounded=0;exitX=1;exitY=0.5;exitDx=0;exitDy=0;entryX=0;entryY=0.5;entryDx=0;entryDy=0;" edge="1" parent="L7Zh1CeTjRLwIHye0Val-20" source="L7Zh1CeTjRLwIHye0Val-1" target="L7Zh1CeTjRLwIHye0Val-13">
          <mxGeometry width="50" height="50" relative="1" as="geometry">
            <mxPoint x="712.72" y="228.75000000000003" as="sourcePoint" />
            <mxPoint x="755.1999999999999" y="276.40625000000006" as="targetPoint" />
          </mxGeometry>
        </mxCell>
        <mxCell id="L7Zh1CeTjRLwIHye0Val-13" value="&lt;font style=&quot;font-size: 24px;&quot;&gt;React&lt;br&gt;Native&lt;br&gt;native&lt;br&gt;modules&lt;/font&gt;" style="rounded=0;whiteSpace=wrap;html=1;" vertex="1" parent="L7Zh1CeTjRLwIHye0Val-20">
          <mxGeometry x="778.7999999999998" y="19.0625" width="155.75999999999996" height="514.6875000000001" as="geometry" />
        </mxCell>
        <mxCell id="L7Zh1CeTjRLwIHye0Val-14" value="&lt;font style=&quot;font-size: 24px;&quot;&gt;Platform&lt;/font&gt;&lt;br&gt;&lt;font style=&quot;font-size: 24px;&quot;&gt;APIs&lt;/font&gt;" style="rounded=0;whiteSpace=wrap;html=1;" vertex="1" parent="L7Zh1CeTjRLwIHye0Val-20">
          <mxGeometry x="991.1999999999998" y="19.0625" width="169.92" height="514.6875000000001" as="geometry" />
        </mxCell>
        <mxCell id="L7Zh1CeTjRLwIHye0Val-18" value="" style="endArrow=classic;startArrow=classic;html=1;rounded=0;exitX=1;exitY=0.5;exitDx=0;exitDy=0;" edge="1" parent="L7Zh1CeTjRLwIHye0Val-20">
          <mxGeometry width="50" height="50" relative="1" as="geometry">
            <mxPoint x="934.5600000000001" y="274.50000000000006" as="sourcePoint" />
            <mxPoint x="991.1999999999998" y="274.50000000000006" as="targetPoint" />
          </mxGeometry>
        </mxCell>
      </root>
    </mxGraphModel>
  </diagram>
</mxfile>
